<svg width="1400" height="875" viewBox="0 0 1400 875" fill="none" xmlns="http://www.w3.org/2000/svg">
  <rect width="1400" height="875" fill="#07080C"/>
  <rect x="80" y="76" width="1240" height="723" rx="42" fill="#0A0E16" stroke="#203048" stroke-width="2"/>
  <rect x="128" y="130" width="1144" height="92" rx="22" fill="#0D1624" stroke="#24364F"/>
  <circle cx="172" cy="176" r="16" fill="#7CC8FF"/>
  <rect x="214" y="158" width="235" height="17" rx="8.5" fill="#E7F5FF"/>
  <rect x="214" y="184" width="148" height="12" rx="6" fill="#6D7C91"/>
  <rect x="1033" y="156" width="176" height="40" rx="20" fill="#7CC8FF"/>
  <rect x="152" y="278" width="316" height="362" rx="28" fill="#0E1726" stroke="#24364F"/>
  <rect x="192" y="320" width="134" height="14" rx="7" fill="#7CC8FF"/>
  <rect x="192" y="360" width="224" height="20" rx="10" fill="#F1F7FF"/>
  <rect x="192" y="394" width="185" height="12" rx="6" fill="#718096"/>
  <rect x="192" y="445" width="226" height="52" rx="16" fill="#111E31" stroke="#2D4160"/>
  <rect x="216" y="465" width="126" height="13" rx="6.5" fill="#BFD5E8"/>
  <rect x="192" y="517" width="226" height="52" rx="16" fill="#111E31" stroke="#2D4160"/>
  <rect x="216" y="537" width="154" height="13" rx="6.5" fill="#BFD5E8"/>
  <rect x="192" y="589" width="146" height="38" rx="19" fill="#7CC8FF"/>
  <rect x="542" y="292" width="316" height="118" rx="26" fill="#0E1726" stroke="#2B4264"/>
  <rect x="582" y="326" width="168" height="16" rx="8" fill="#F1F7FF"/>
  <rect x="582" y="358" width="226" height="12" rx="6" fill="#718096"/>
  <circle cx="808" cy="350" r="26" fill="#11243A" stroke="#7CC8FF" stroke-width="2"/>
  <path d="M797 350L805 358L820 339" stroke="#7CC8FF" stroke-width="5" stroke-linecap="round" stroke-linejoin="round"/>
  <rect x="542" y="470" width="316" height="118" rx="26" fill="#0E1726" stroke="#2B4264"/>
  <rect x="582" y="504" width="128" height="16" rx="8" fill="#F1F7FF"/>
  <rect x="582" y="536" width="226" height="12" rx="6" fill="#718096"/>
  <rect x="778" y="505" width="38" height="38" rx="12" fill="#172C45" stroke="#7CC8FF"/>
  <path d="M797 515V533M788 524H806" stroke="#7CC8FF" stroke-width="4" stroke-linecap="round"/>
  <rect x="932" y="292" width="316" height="296" rx="28" fill="#0E1726" stroke="#24364F"/>
  <rect x="976" y="334" width="142" height="16" rx="8" fill="#F1F7FF"/>
  <rect x="976" y="368" width="220" height="12" rx="6" fill="#718096"/>
  <rect x="976" y="426" width="220" height="44" rx="14" fill="#111E31" stroke="#2D4160"/>
  <rect x="1000" y="443" width="118" height="10" rx="5" fill="#BFD5E8"/>
  <rect x="976" y="491" width="220" height="44" rx="14" fill="#111E31" stroke="#2D4160"/>
  <rect x="1000" y="508" width="152" height="10" rx="5" fill="#BFD5E8"/>
  <path d="M468 458C506 458 506 351 542 351" stroke="#7CC8FF" stroke-width="4" stroke-linecap="round" stroke-dasharray="10 14"/>
  <path d="M858 351C897 351 894 351 932 351" stroke="#7CC8FF" stroke-width="4" stroke-linecap="round" stroke-dasharray="10 14"/>
  <path d="M700 410V470" stroke="#7CC8FF" stroke-width="4" stroke-linecap="round" stroke-dasharray="10 14"/>
  <rect x="152" y="690" width="1096" height="54" rx="20" fill="#0D1624" stroke="#24364F"/>
  <rect x="192" y="711" width="98" height="12" rx="6" fill="#7CC8FF"/>
  <rect x="328" y="711" width="156" height="12" rx="6" fill="#718096"/>
  <rect x="522" y="711" width="138" height="12" rx="6" fill="#718096"/>
  <rect x="698" y="711" width="181" height="12" rx="6" fill="#718096"/>
  <rect x="917" y="711" width="128" height="12" rx="6" fill="#718096"/>
  <rect x="1083" y="711" width="85" height="12" rx="6" fill="#718096"/>
  <text x="152" y="251" fill="#7CC8FF" font-family="Inter, Arial, sans-serif" font-size="18" font-weight="700" letter-spacing="3">MEISTERFLOW DEMO</text>
</svg>
